<?xml version="1.0" standalone="no"?>
<!DOCTYPE svg PUBLIC "-//W3C//DTD SVG 20010904//EN"
 "http://www.w3.org/TR/2001/REC-SVG-20010904/DTD/svg10.dtd">
<svg version="1.0" xmlns="http://www.w3.org/2000/svg"
 width="1240" height="295" viewBox="0 0 1240.000000 295.000000"
 preserveAspectRatio="xMidYMid meet">
<metadata>
Created by potrace 1.16, written by Peter Selinger 2001-2019
</metadata>
<g transform="translate(0.000000,295.000000) scale(0.100000,-0.100000)"
fill="#D4A017" stroke="none">
<path d="M1890 1395 c0 -1233 2 -1395 15 -1395 13 0 15 162 15 1395 0 1233 -2
1395 -15 1395 -13 0 -15 -162 -15 -1395z"/>
<path d="M1025 2214 c-237 -23 -417 -126 -511 -293 -31 -55 -64 -177 -64 -237
0 -39 -4 -46 -42 -72 -56 -38 -128 -116 -160 -172 -89 -153 -92 -393 -8 -562
71 -143 166 -247 425 -463 201 -169 310 -279 355 -358 l32 -57 191 0 192 0 32
48 c72 108 103 206 110 344 15 291 -104 479 -512 802 -185 147 -296 253 -346
330 -59 90 -60 89 84 83 148 -6 224 -29 292 -89 57 -50 72 -79 94 -181 9 -44
23 -83 29 -85 22 -7 30 43 33 233 l4 190 -35 3 c-19 2 -78 12 -130 23 -100 22
-360 31 -409 15 l-24 -8 5 74 c8 129 69 221 185 279 67 34 69 34 203 34 115 0
145 -3 202 -23 121 -42 189 -125 212 -257 11 -62 16 -75 31 -75 20 0 23 34 27
240 l3 185 -25 3 c-14 1 -74 11 -135 22 -113 20 -269 31 -340 24z m-505 -864
c61 -122 190 -258 430 -457 301 -249 375 -347 401 -528 12 -86 1 -171 -31
-242 l-21 -48 -24 72 c-53 167 -192 328 -490 565 -166 133 -279 238 -330 307
-84 116 -94 297 -23 422 l31 54 17 -50 c10 -28 27 -70 40 -95z"/>
<path d="M2784 2190 c-99 -26 -162 -60 -233 -126 -107 -99 -158 -234 -148
-394 13 -219 118 -374 417 -619 218 -179 311 -277 357 -377 23 -49 28 -76 31
-159 3 -84 0 -109 -18 -158 -46 -122 -145 -204 -281 -233 -140 -30 -316 11
-412 95 -56 50 -97 142 -104 235 -6 80 -10 90 -32 77 -16 -10 -38 -337 -27
-395 6 -30 14 -38 63 -62 127 -60 372 -82 539 -48 96 19 222 78 286 134 97 84
177 244 193 386 4 33 2 96 -4 138 -30 211 -145 366 -456 611 -199 157 -293
253 -335 340 -28 58 -32 78 -32 149 -1 139 54 232 172 293 52 27 62 28 185 28
110 -1 139 -4 185 -23 110 -43 159 -105 181 -226 8 -43 17 -66 26 -66 20 0 21
8 27 200 l6 175 -128 23 c-163 29 -353 30 -458 2z"/>
<path d="M9165 1880 c-8 -12 -26 -159 -120 -985 -14 -121 -32 -281 -41 -355
-51 -440 -49 -434 -160 -448 -42 -5 -59 -11 -59 -22 0 -13 36 -15 260 -15 224
0 260 2 260 15 0 11 -16 17 -57 22 -105 13 -123 38 -113 153 31 374 96 1103
99 1115 1 8 28 -37 58 -100 285 -593 569 -1144 612 -1188 46 -47 9 -112 481
853 65 132 142 291 172 354 30 62 56 111 59 108 4 -4 29 -245 111 -1079 17
-172 16 -178 -2 -198 -13 -15 -16 -23 -8 -31 21 -21 176 -28 563 -28 212 -1
511 -4 665 -7 155 -4 297 -4 317 0 28 5 39 14 51 39 17 36 49 251 40 273 -7
20 -31 17 -36 -3 -3 -10 -10 -39 -17 -65 -13 -50 -45 -90 -93 -114 -43 -23
-248 -38 -354 -26 -101 10 -137 25 -167 65 -20 27 -21 41 -24 388 l-3 359 53
-1 c29 0 127 -4 218 -8 219 -10 237 -20 255 -138 4 -24 11 -43 16 -43 18 0 27
38 33 145 4 61 12 130 17 154 12 53 0 72 -27 43 -43 -44 -58 -47 -316 -50
l-248 -4 0 347 0 347 213 -5 c288 -6 321 -18 342 -123 13 -65 35 -79 46 -29 7
26 29 204 33 260 0 11 -4 19 -11 18 -114 -22 -194 -25 -598 -21 -242 3 -446 3
-452 1 -7 -3 -13 -11 -13 -18 0 -16 13 -21 74 -24 65 -4 91 -15 113 -48 17
-25 18 -71 18 -773 0 -778 -3 -838 -43 -873 -24 -21 -67 -29 -147 -28 -115 1
-175 18 -215 60 -55 58 -56 62 -110 541 -32 285 -59 517 -90 780 -10 91 -24
210 -30 265 -13 116 -25 155 -50 155 -20 0 -32 -23 -495 -978 -232 -477 -261
-532 -273 -515 -7 10 -171 333 -364 718 -193 385 -361 717 -375 737 -23 37
-55 50 -68 28z"/>
<path d="M3503 1843 c-9 -22 16 -33 74 -33 44 0 58 -5 85 -29 l33 -29 5 -139
c3 -76 7 -322 8 -548 4 -445 12 -531 64 -660 73 -180 214 -301 418 -361 93
-27 407 -27 495 0 208 64 363 202 432 384 60 160 65 210 72 787 4 292 10 538
15 548 11 24 51 43 109 51 38 6 47 11 45 24 -3 15 -29 17 -269 18 -147 1 -272
-2 -280 -6 -10 -7 -10 -11 0 -24 10 -11 31 -16 73 -16 52 0 63 -4 88 -28 40
-40 42 -89 38 -677 -4 -484 -5 -503 -27 -585 -58 -212 -173 -337 -356 -385
-73 -19 -232 -19 -301 -1 -131 35 -251 135 -309 258 -69 145 -70 158 -70 785
0 555 0 562 21 590 22 29 42 38 107 48 29 5 37 10 35 23 -3 15 -30 17 -301 18
-254 1 -300 -1 -304 -13z"/>
<path d="M5430 1850 c-23 -14 1 -30 46 -30 58 0 108 -21 131 -56 17 -26 18
-69 21 -714 3 -689 -2 -843 -32 -915 -15 -35 -20 -37 -98 -50 -24 -4 -38 -11
-38 -20 0 -13 41 -15 263 -17 464 -5 527 -3 597 15 214 56 372 208 410 394 7
32 10 96 8 144 -4 75 -9 97 -40 161 -57 115 -182 226 -318 283 -25 10 -49 22
-53 26 -5 4 12 26 38 50 65 60 131 148 162 216 21 45 26 73 27 137 1 72 -3 88
-32 148 -52 106 -144 175 -287 214 -50 14 -122 17 -426 19 -202 2 -372 -1
-379 -5z m718 -100 c68 -29 143 -111 173 -188 18 -46 23 -78 23 -162 1 -93 -2
-111 -25 -161 -38 -81 -90 -134 -144 -148 -47 -12 -242 -15 -294 -5 l-31 6 0
334 0 334 23 5 c56 12 77 13 148 10 50 -2 93 -10 127 -25z m6 -775 c216 -45
368 -267 353 -515 -7 -107 -28 -166 -79 -225 -73 -83 -163 -111 -329 -103 -79
4 -117 10 -157 28 -89 38 -87 28 -90 449 -2 200 -1 370 3 379 5 13 22 14 118
8 61 -4 143 -13 181 -21z"/>
<path d="M6809 1849 c-26 -16 9 -36 68 -38 61 -2 94 -17 115 -53 17 -29 24
-1373 9 -1512 -13 -115 -28 -137 -102 -152 -36 -6 -54 -15 -54 -25 0 -12 77
-15 525 -22 368 -6 536 -5 562 2 44 14 51 31 74 185 17 111 15 146 -6 146 -11
0 -16 -11 -45 -92 -21 -60 -65 -103 -129 -125 -62 -21 -337 -23 -431 -4 -111
23 -129 49 -144 201 -14 127 -14 1309 -1 1365 13 56 46 81 119 90 58 7 81 18
66 33 -9 10 -611 11 -626 1z"/>
<path d="M8083 1842 c-8 -19 14 -32 55 -32 18 0 46 -7 61 -15 57 -29 56 -16
56 -800 0 -898 1 -888 -113 -902 -49 -5 -77 -28 -49 -39 7 -2 149 -3 317 -2
263 3 305 5 305 18 0 11 -18 17 -70 22 -89 10 -110 19 -132 60 -17 31 -18 84
-21 800 -3 663 -1 771 12 802 16 39 47 56 100 56 33 0 66 24 52 38 -4 4 -134
7 -288 8 -236 1 -281 -1 -285 -14z"/>
<path d="M402 338 c-6 -7 -13 -63 -17 -123 -3 -61 -8 -134 -11 -162 l-5 -53
91 0 92 0 -27 31 c-54 65 -75 124 -84 238 -6 73 -18 94 -39 69z"/>
</g>
</svg>
